PathFileType  4	(X/Y/Z) C:\Users\antoi\Documents\MyRepositories\mobilecap\ResultsAnalysis
DataRate	CameraRate	NumFrames	NumMarkers	Units	OrigDataRate	OrigDataStartFrame	OrigNumFrames
100.0	100.0	6	51	mm	100.0	204	232
Frame#	Time	r_knee			r_shank_antsup			r_ankle			r_calc			r_5meta			r_toe			L_knee			L_shank_antsup			L_ankle			L_calc			L_5meta			L_toe			r_sh2			r_sh3			r_sh4			L_sh2			L_sh3			r_thigh1			r_thigh2			r_thigh3			r_thigh4			r_thigh5			L_thigh1			L_thigh2			L_thigh3			L_thigh4			r.ASIS			r.PSIS			L.ASIS			L.PSIS			C7			R_Shoulder			L_Shoulder			R_Sternum			L_Sternum			R_humerus			R_elbow_med			R_elbow_lat			R_forearm			R_wrist_radius			R_wrist_ulna			L_humerus			L_elbow_med			L_elbow_lat			L_forearm			L_wrist_radius			L_wrist_ulna			R_HJC			L_HJC			R_HJC_reg			L_HJC_reg			
		X1	Y1	Z1	X2	Y2	Z2	X3	Y3	Z3	X4	Y4	Z4	X5	Y5	Z5	X6	Y6	Z6	X7	Y7	Z7	X8	Y8	Z8	X9	Y9	Z9	X10	Y10	Z10	X11	Y11	Z11	X12	Y12	Z12	X13	Y13	Z13	X14	Y14	Z14	X15	Y15	Z15	X16	Y16	Z16	X17	Y17	Z17	X18	Y18	Z18	X19	Y19	Z19	X20	Y20	Z20	X21	Y21	Z21	X22	Y22	Z22	X23	Y23	Z23	X24	Y24	Z24	X25	Y25	Z25	X26	Y26	Z26	X27	Y27	Z27	X28	Y28	Z28	X29	Y29	Z29	X30	Y30	Z30	X31	Y31	Z31	X32	Y32	Z32	X33	Y33	Z33	X34	Y34	Z34	X35	Y35	Z35	X36	Y36	Z36	X37	Y37	Z37	X38	Y38	Z38	X39	Y39	Z39	X40	Y40	Z40	X41	Y41	Z41	X42	Y42	Z42	X43	Y43	Z43	X44	Y44	Z44	X45	Y45	Z45	X46	Y46	Z46	X47	Y47	Z47	X48	Y48	Z48	X49	Y49	Z49	X50	Y50	Z50	X51	Y51	Z51	

204	2.03000000	-170.69290	757.55995	-427.15937	-132.78009	686.37559	-432.68650	-236.08519	355.32247	-391.76625	-307.16690	363.17770	-428.04298	-175.11739	246.63997	-366.83582	-117.61768	249.76885	-419.26239	-140.00654	765.06397	-816.59094	-101.40158	678.81630	-835.20118	-165.07004	367.00525	-846.34312	-225.23122	359.87379	-784.97947	-102.49612	262.43936	-894.36798	-43.25691	273.14165	-856.63014	-166.26254	581.21356	-395.47894	-210.57559	711.92425	-409.54828	-235.98335	599.87548	-391.74187	-189.98358	688.04542	-827.63554	-191.94783	567.31418	-849.52960	-142.07722	1078.06176	-431.21383	-136.39665	966.41802	-425.01469	-194.97025	941.98897	-402.13558	-255.86245	1070.22877	-430.25070	-244.65364	953.58623	-424.87798	-172.57326	1036.50586	-839.29672	-131.66238	903.97951	-831.31010	-269.19103	1006.25810	-779.68110	-225.02157	872.31676	-787.67407	-126.34517	1223.29194	-492.44778	-300.97489	1289.61274	-577.72515	-113.80695	1210.65032	-739.87809	-302.32835	1293.99213	-676.11572	-136.51711	1684.24282	-608.68186	-67.78126	1620.45882	-444.92769	-64.27093	1645.49741	-770.22138	-10.37555	1605.59707	-580.49105	-5.10671	1609.13112	-630.04532	-113.39069	1519.21205	-356.80433	-263.48101	1347.45075	-348.94412	-230.64674	1373.26654	-275.93137	-103.73985	1360.45309	-334.65397	11.51987	1318.91010	-393.34758	0.00974	1351.97091	-402.70498	-87.68364	1571.80449	-863.54382	-229.46243	1375.84080	-905.99085	-194.82702	1426.66279	-969.44563	-102.78460	1431.52628	-906.91176	13.06476	1421.03498	-827.24458	28.41962	1407.44622	-854.30212	-212.82056	1156.17831	-516.67367	-204.62344	1152.18111	-722.94241	-201.48386	1152.09794	-528.66905	-203.73344	1159.37643	-692.21968	
205	2.04000000	-171.25340	753.47859	-427.91190	-132.57252	682.44260	-433.22866	-234.05288	351.51035	-389.93814	-305.67606	357.30178	-426.27510	-171.16745	244.48206	-363.69765	-114.11948	247.66095	-416.62622	-141.36718	760.87692	-817.50152	-102.74563	675.10072	-836.28059	-162.02474	362.48747	-847.23734	-222.30919	353.29629	-785.81802	-97.18062	259.44399	-895.79425	-38.24718	271.65653	-858.16399	-165.44790	577.17925	-395.46293	-210.12785	707.71023	-409.74343	-235.20383	595.71984	-391.40022	-191.28887	683.22353	-828.21369	-191.88685	562.51993	-850.18142	-143.62255	1073.70769	-432.32767	-138.40979	962.09192	-425.87125	-196.93312	937.67348	-403.54863	-257.38226	1065.92895	-433.15931	-246.45188	949.45024	-426.62445	-173.86704	1032.58594	-840.53923	-132.79716	900.11986	-832.18668	-270.85735	1002.03752	-781.92020	-226.44469	868.23575	-789.67393	-126.96171	1218.90192	-494.20555	-301.55695	1286.15049	-578.41561	-114.83923	1208.06880	-741.18596	-303.04150	1291.18864	-676.70333	-135.06390	1679.28891	-606.18017	-65.54488	1613.50371	-443.60558	-64.22462	1641.83971	-768.84943	-9.23142	1599.88068	-579.74797	-4.24819	1603.77935	-629.24623	-111.36032	1511.26834	-356.43202	-263.91227	1341.62649	-349.21522	-229.21852	1364.95178	-277.02792	-103.80374	1351.43899	-338.16077	9.86826	1309.18379	-398.20891	-1.22012	1342.02951	-407.80908	-88.27919	1568.44547	-862.63808	-230.29573	1372.83976	-905.18218	-196.36750	1424.21321	-968.21546	-103.78073	1429.37826	-906.58695	12.98164	1418.69634	-828.19242	28.10968	1405.47164	-855.71216	-213.54656	1152.10779	-518.47596	-205.70153	1149.60456	-724.78345	-202.25258	1148.36428	-530.69826	-204.71633	1156.72552	-693.82555	
206	2.05000000	-171.62156	748.34251	-428.60481	-132.14061	677.54102	-433.87444	-232.06173	346.87096	-388.29858	-304.24939	350.27562	-424.95805	-167.07531	241.18176	-361.17910	-110.44304	244.80645	-414.09549	-142.35201	755.60474	-818.33700	-103.76647	670.29036	-837.25546	-159.10564	356.90294	-847.89346	-219.47101	346.16409	-786.66734	-92.26794	255.17692	-896.57914	-33.58467	268.83032	-858.95333	-164.50896	572.34689	-395.37890	-209.56095	702.52776	-410.14741	-234.50048	590.57961	-391.18276	-192.41895	677.40473	-828.93188	-191.73921	556.65184	-850.63460	-145.48376	1068.42134	-433.74453	-140.37156	956.80526	-426.75356	-198.70838	932.42182	-404.60329	-259.13400	1060.41972	-435.30915	-248.12967	943.95200	-428.04730	-174.45519	1027.66363	-841.99796	-133.32123	895.21881	-833.11197	-272.14491	996.85416	-784.52535	-227.59799	863.05009	-791.98375	-127.75063	1213.78358	-495.90677	-302.08909	1281.87657	-579.11144	-115.78629	1204.74649	-742.57113	-303.62962	1287.59899	-677.28403	-133.68060	1673.15278	-603.70655	-63.40386	1605.51996	-442.37356	-64.34398	1637.20699	-767.47897	-7.92802	1592.94272	-578.86638	-3.33158	1597.36895	-628.50874	-109.36733	1502.39637	-355.78540	-264.82169	1335.43111	-348.95861	-227.51456	1355.41564	-277.97558	-103.97449	1341.99882	-341.13492	8.33437	1298.62146	-403.73937	-2.27710	1331.34848	-412.96320	-89.14960	1564.31904	-861.74748	-231.39924	1368.99918	-904.50051	-198.21326	1421.10599	-967.26117	-105.08371	1426.30483	-906.22494	12.65889	1415.37429	-829.42748	27.47128	1402.41579	-857.21109	-214.30450	1147.25494	-520.31233	-206.69945	1146.29088	-726.64045	-203.10273	1143.79983	-532.76902	-205.65747	1153.29070	-695.57026	
207	2.06000000	-171.80657	742.04162	-429.43451	-131.53542	671.58089	-434.64331	-230.11471	341.06101	-387.22809	-302.63853	342.34811	-424.12307	-163.07134	236.97473	-358.92283	-106.63694	241.05681	-411.88703	-143.00952	749.37650	-819.21476	-104.46162	664.47008	-838.17244	-156.38706	350.36402	-848.39080	-216.88170	338.38028	-787.58977	-87.47704	250.06706	-897.06970	-29.24898	264.71158	-858.91097	-163.32208	566.54111	-395.52932	-209.03197	696.52101	-410.64440	-233.50338	584.42126	-390.99162	-193.26764	670.62117	-829.70686	-191.33729	549.85484	-851.12699	-147.42894	1062.03013	-435.36480	-141.91163	950.43498	-427.79263	-200.26043	926.18611	-405.40964	-261.00024	1053.83547	-436.76297	-249.62836	937.28259	-429.09654	-174.31897	1021.65153	-843.70106	-133.36821	889.29100	-834.01050	-272.97724	990.80471	-787.45370	-228.45637	856.85231	-794.38122	-128.59270	1207.61188	-497.53016	-302.60390	1276.70786	-580.02458	-116.73117	1200.45431	-744.06436	-304.18421	1283.15923	-678.05560	-132.35720	1665.85692	-601.42422	-61.42342	1596.53858	-441.07487	-64.54843	1631.49667	-765.95004	-6.69085	1585.00417	-577.98359	-2.31811	1589.96817	-627.59541	-107.40336	1492.50566	-355.06576	-265.13902	1327.66219	-349.03460	-225.79375	1344.98994	-278.90112	-104.07680	1331.61744	-343.97596	7.04289	1287.07148	-409.66772	-3.13478	1319.93782	-417.99619	-90.24528	1559.43005	-860.80264	-232.75243	1364.37170	-903.98046	-200.25541	1417.23551	-966.45389	-106.60898	1422.28895	-906.17309	12.07085	1411.00240	-830.85366	26.51044	1398.27363	-858.81426	-215.20775	1141.44524	-522.28717	-207.70551	1142.05937	-728.61971	-204.05594	1138.18439	-534.83053	-206.67672	1148.88525	-697.42721	
208	2.07000000	-171.78673	734.64530	-430.36206	-130.81502	664.65879	-435.52690	-227.99601	334.09337	-386.67811	-300.63683	333.71133	-423.69309	-159.30440	231.86134	-356.90698	-102.82443	236.26855	-409.89107	-143.42889	742.24411	-820.12270	-104.87915	657.57853	-838.72936	-153.76266	343.00731	-848.71880	-214.66522	329.78766	-788.62864	-82.82074	243.81471	-896.97469	-25.17805	259.58113	-858.39897	-161.80993	559.62889	-396.04714	-208.39289	689.58202	-410.93924	-232.00108	577.33666	-390.76575	-193.73294	662.94130	-830.39599	-190.61346	542.22138	-851.84030	-149.25325	1054.38722	-437.24591	-143.11179	943.07692	-428.78481	-201.53054	918.82518	-406.01190	-262.87451	1046.04271	-437.86240	-250.92456	929.56783	-429.81704	-173.65845	1014.52530	-845.32248	-133.12118	882.28220	-834.68295	-273.34932	983.86889	-790.68453	-229.00139	849.89763	-797.04860	-129.52744	1200.29539	-499.07101	-303.14969	1270.65333	-581.05599	-117.81108	1194.88814	-745.57948	-304.70185	1277.74042	-678.95263	-130.94650	1657.53144	-599.31767	-59.57223	1586.63335	-439.65769	-64.76426	1624.71425	-764.23496	-5.46358	1576.16227	-576.98644	-1.27201	1581.55132	-626.53338	-105.40204	1481.49815	-354.54237	-264.50792	1317.98413	-349.78654	-224.10863	1333.66424	-280.01749	-103.59591	1319.57563	-347.34946	5.95040	1274.66919	-415.40283	-3.77414	1307.83925	-422.72883	-91.42067	1553.72706	-859.77226	-234.28969	1358.96804	-903.53691	-202.46543	1412.50694	-965.64423	-108.32359	1417.39769	-906.54058	11.29665	1405.53376	-832.40093	25.36118	1393.10678	-860.58768	-216.35444	1134.63767	-524.24852	-208.89910	1136.68854	-730.57543	-205.30163	1131.55375	-536.80908	-207.87696	1143.31592	-699.28203	
209	2.08000000	-171.49368	726.38300	-431.10474	-129.97474	656.86942	-436.41603	-225.64708	326.13392	-386.55360	-298.35564	324.33844	-423.66944	-155.72152	225.63020	-355.28632	-99.14415	230.30433	-408.04878	-143.61580	734.14855	-820.87463	-104.94039	649.68384	-838.91791	-151.16840	334.84160	-848.84686	-212.77833	320.39731	-789.70157	-78.26595	236.55400	-896.38435	-21.32738	253.46896	-857.37705	-160.10124	551.71355	-396.65374	-207.49305	681.41548	-411.12996	-230.31896	569.30000	-390.71709	-193.76673	654.48605	-831.13274	-189.67046	533.72220	-852.68472	-151.14684	1045.94860	-439.00765	-144.25654	934.87237	-429.69372	-202.50377	910.36338	-406.62375	-264.75544	1036.91916	-438.76663	-251.98116	920.74213	-430.39030	-172.71329	1006.48594	-846.82504	-132.57342	874.19140	-835.13527	-273.37321	976.01513	-794.13559	-229.28665	842.17447	-800.03320	-130.64885	1191.74968	-500.63952	-303.76132	1263.70957	-581.99871	-119.01596	1187.94388	-747.00042	-305.11388	1271.30534	-679.68652	-129.45040	1648.19331	-597.20780	-57.79773	1575.79312	-438.17217	-64.94797	1616.94234	-762.45605	-4.17682	1566.38812	-575.90110	-0.24357	1572.07107	-625.52279	-103.29044	1469.33633	-354.25238	-263.56033	1307.05063	-350.83958	-222.30992	1321.05977	-281.36255	-102.49695	1306.05586	-350.98453	5.00282	1261.38097	-421.15025	-4.17750	1295.02998	-427.26918	-92.56644	1547.11298	-858.73396	-235.91677	1352.77061	-902.97931	-204.81461	1406.95507	-964.83824	-110.14116	1411.52636	-906.96708	10.47660	1398.98323	-834.03964	24.13647	1386.90437	-862.46661	-217.77341	1126.75333	-526.09724	-210.37019	1130.14881	-732.40859	-206.97583	1123.95507	-538.83219	-209.22230	1136.57484	-701.12411	
